<?xml version="1.0" encoding="UTF-8" ?>
<!DOCTYPE svg PUBLIC "-//W3C//DTD SVG 1.1//EN" "http://www.w3.org/Graphics/SVG/1.1/DTD/svg11.dtd">
<svg width="19pt" height="23pt" viewBox="0 0 19 23" version="1.1" xmlns="http://www.w3.org/2000/svg">
<g id="#2176d7d7">
<path fill="#2176d7" opacity="0.84" d=" M 5.66 10.57 C 2.27 7.20 3.80 0.39 9.05 0.20 C 14.42 0.03 16.49 6.88 13.05 10.48 C 16.72 12.62 20.49 18.35 16.87 21.99 C 12.31 22.78 7.58 22.42 2.96 22.26 C 0.44 22.22 -0.35 19.09 0.45 17.11 C 0.97 14.16 3.15 11.98 5.66 10.57 M 8.25 2.19 C 3.47 3.43 5.86 11.53 10.54 9.60 C 15.02 8.13 12.70 0.77 8.25 2.19 M 1.82 20.23 C 6.41 20.61 11.03 20.72 15.62 20.41 C 15.87 20.19 16.38 19.74 16.63 19.52 C 16.72 15.07 12.58 10.79 7.99 11.87 C 3.96 12.39 1.85 16.52 1.82 20.23 Z" />
</g>
</svg>
