<?xml version="1.0" encoding="UTF-8" ?>
<!DOCTYPE svg PUBLIC "-//W3C//DTD SVG 1.1//EN" "http://www.w3.org/Graphics/SVG/1.1/DTD/svg11.dtd">
<svg width="18pt" height="22pt" viewBox="0 0 18 22" version="1.1" xmlns="http://www.w3.org/2000/svg">
<g id="#2279dbdb">
<path fill="#2279db" opacity="0.86" d=" M 7.58 0.00 L 11.21 0.00 C 14.58 0.92 17.25 3.66 18.00 7.08 L 18.00 9.64 C 16.36 14.35 13.23 18.35 9.91 22.00 L 8.95 22.00 C 5.82 18.38 2.57 14.60 1.05 9.98 C 0.02 5.50 3.35 1.19 7.58 0.00 M 3.15 10.14 C 4.60 13.68 7.07 16.67 9.47 19.60 C 11.84 16.57 14.39 13.56 15.81 9.94 C 17.06 5.91 13.18 1.42 9.02 1.98 C 5.07 1.97 1.88 6.35 3.15 10.14 Z" />
<path fill="#2279db" opacity="0.86" d=" M 9.14 6.15 C 10.48 5.68 11.20 7.96 9.84 8.37 C 8.37 8.99 7.66 6.55 9.14 6.15 Z" />
</g>
</svg>
