<?xml version="1.0" encoding="UTF-8" ?>
<!DOCTYPE svg PUBLIC "-//W3C//DTD SVG 1.1//EN" "http://www.w3.org/Graphics/SVG/1.1/DTD/svg11.dtd">
<svg width="21pt" height="21pt" viewBox="0 0 21 21" version="1.1" xmlns="http://www.w3.org/2000/svg">
<g id="#2686f3f3">
<path fill="#2686f3" opacity="0.95" d=" M 8.28 0.00 L 9.65 0.00 C 9.93 0.59 10.49 1.78 10.77 2.37 L 12.28 0.72 C 13.93 1.44 15.94 2.59 16.34 0.00 L 16.77 0.00 C 16.72 2.28 19.58 1.47 20.98 1.85 L 21.00 0.03 L 21.00 20.61 C 14.29 20.65 7.59 20.62 0.88 20.62 C 0.88 14.38 0.87 8.13 0.89 1.88 C 2.43 1.68 3.99 1.43 5.37 0.70 C 6.07 1.11 7.45 1.95 8.14 2.37 C 8.17 1.78 8.25 0.59 8.28 0.00 M 2.27 2.78 C 2.26 3.58 2.24 5.19 2.23 5.99 C 8.02 5.99 13.81 6.02 19.60 5.97 C 19.60 5.18 19.58 3.62 19.57 2.84 C 18.36 2.98 17.23 3.36 16.33 4.21 C 15.71 1.96 13.64 3.39 12.48 4.08 C 11.92 2.16 10.10 3.22 9.11 3.89 C 8.06 3.41 6.04 1.95 5.70 4.14 C 4.63 3.50 3.47 3.07 2.27 2.78 M 2.25 7.35 C 2.24 11.31 2.24 15.26 2.24 19.22 C 8.00 19.25 13.76 19.21 19.52 19.25 C 19.60 15.29 19.57 11.32 19.57 7.35 C 13.79 7.34 8.02 7.35 2.25 7.35 Z" />
<path fill="#2686f3" opacity="0.95" d=" M 6.79 11.65 C 7.26 9.22 10.19 9.58 12.03 9.61 C 13.89 9.38 15.56 11.07 15.06 12.93 C 14.40 14.93 12.41 16.02 10.93 17.36 C 9.25 15.83 6.30 14.36 6.79 11.65 M 8.25 11.37 C 7.38 13.38 9.89 14.43 10.88 15.74 C 12.22 14.37 14.66 13.03 13.23 10.86 C 11.63 11.63 9.88 10.98 8.25 11.37 Z" />
</g>
</svg>
